<svg width="815" height="1039" viewBox="0 0 815 1039" fill="none" xmlns="http://www.w3.org/2000/svg">
<path fill-rule="evenodd" clip-rule="evenodd" d="M554.048 967.534C452.792 967.048 333.798 972.451 263.162 904.925C192.28 837.164 241.238 723.895 207.079 635.841C172.493 546.687 69.8879 484.111 63.465 390.15C56.2973 285.29 71.8645 151.598 170.412 99.4253C273.917 44.627 401.519 152.212 521.887 147.451C618.918 143.613 702.916 44.1362 794.801 74.7307C886.161 105.151 891.407 224.35 955.276 291.755C1029.63 370.227 1185.88 398.362 1198.5 500.779C1210.91 601.485 1081.63 663.867 1010.51 740.13C952.033 802.839 898.4 868.109 819.142 907.594C737.843 948.096 647.369 967.982 554.048 967.534Z" fill="#3D87E2"/>
</svg>
